<svg width="148" height="44" viewBox="0 0 148 44" fill="none" xmlns="http://www.w3.org/2000/svg">
<g filter="url(#filter0_dd_6_1229)">
<g clip-path="url(#clip0_6_1229)">
<path d="M20.3273 3.83301L19.7023 6.68026L20.3273 9.80813C25.8551 9.80813 30.3522 14.3053 30.3522 19.833C30.3522 25.3608 25.8551 29.8579 20.3273 29.8579L19.7023 32.4239L20.3273 35.833C29.1639 35.833 36.3273 28.6696 36.3273 19.833C36.3273 10.9964 29.1639 3.83301 20.3273 3.83301Z" fill="#29CCCC"/>
<path d="M26.3688 19.833C26.3688 16.4964 23.664 13.7915 20.3273 13.7915L19.7023 19.833L20.3273 25.8745C23.664 25.8745 26.3688 23.1696 26.3688 19.833Z" fill="#282866"/>
<path d="M10.3024 29.8579V19.833C10.3024 14.3053 14.7995 9.80813 20.3273 9.80813V3.83301C11.4907 3.83301 4.32727 10.9964 4.32727 19.833V35.833H20.3273V29.8579H10.3024Z" fill="#2EE6E6"/>
<path d="M14.2858 19.833C14.2858 23.1696 16.9907 25.8745 20.3273 25.8745V13.7915C16.9907 13.7915 14.2858 16.4964 14.2858 19.833Z" fill="#4A4080"/>
</g>
<path d="M46.0619 31.333V7.76658H51.7579V17.7317H52.0686L59.8589 7.76658H66.5675L58.2134 18.284L66.7171 31.333H59.9049L54.0363 22.0698L51.7579 24.9466V31.333H46.0619ZM73.7968 31.6322C72.6691 31.6322 71.668 31.4442 70.7935 31.0683C69.9266 30.6848 69.24 30.1094 68.7337 29.3423C68.2351 28.5675 67.9857 27.5971 67.9857 26.431C67.9857 25.4491 68.1583 24.6206 68.5036 23.9455C68.8488 23.2704 69.3244 22.7219 69.9304 22.3C70.5365 21.8781 71.2346 21.5597 72.0247 21.3449C72.8149 21.1224 73.6587 20.9728 74.5563 20.8961C75.5612 20.8041 76.3705 20.7082 76.9842 20.6084C77.598 20.501 78.0429 20.3515 78.3191 20.1597C78.6029 19.9602 78.7448 19.6802 78.7448 19.3197V19.2621C78.7448 18.6714 78.5415 18.215 78.135 17.8928C77.7284 17.5706 77.1799 17.4095 76.4894 17.4095C75.7453 17.4095 75.147 17.5706 74.6943 17.8928C74.2417 18.215 73.9541 18.6599 73.8313 19.2276L68.6416 19.0435C68.7951 17.9695 69.1901 17.0106 69.8269 16.1667C70.4713 15.3152 71.3535 14.6478 72.4735 14.1645C73.6012 13.6735 74.9552 13.428 76.5355 13.428C77.6632 13.428 78.7026 13.5623 79.6539 13.8308C80.6051 14.0916 81.4336 14.4752 82.1394 14.9815C82.8452 15.4801 83.3898 16.0938 83.7734 16.8226C84.1646 17.5514 84.3603 18.3837 84.3603 19.3197V31.333H79.067V28.8705H78.9289C78.6144 29.4689 78.2117 29.9752 77.7207 30.3894C77.2374 30.8037 76.6659 31.1144 76.0062 31.3215C75.3541 31.5286 74.6176 31.6322 73.7968 31.6322ZM75.5344 27.9499C76.1404 27.9499 76.6851 27.8272 77.1684 27.5817C77.6593 27.3362 78.0506 26.9987 78.3421 26.5691C78.6336 26.1318 78.7793 25.6255 78.7793 25.0502V23.3701C78.6182 23.4545 78.4226 23.5312 78.1925 23.6003C77.97 23.6693 77.7245 23.7345 77.456 23.7959C77.1875 23.8573 76.9114 23.911 76.6275 23.957C76.3437 24.003 76.0714 24.0452 75.8105 24.0836C75.2812 24.168 74.8286 24.2984 74.4527 24.4748C74.0845 24.6512 73.8006 24.8814 73.6012 25.1652C73.4094 25.4414 73.3135 25.7713 73.3135 26.1548C73.3135 26.7379 73.5206 27.1828 73.9349 27.4897C74.3568 27.7965 74.89 27.9499 75.5344 27.9499ZM87.8009 31.333V13.6582H93.1516V16.9032H93.3473C93.7155 15.8292 94.3369 14.9815 95.2114 14.3601C96.0859 13.7387 97.1293 13.428 98.3413 13.428C99.5687 13.428 100.62 13.7426 101.494 14.3716C102.369 15.0007 102.925 15.8445 103.163 16.9032H103.347C103.677 15.8522 104.321 15.0122 105.28 14.3831C106.239 13.7464 107.371 13.428 108.675 13.428C110.347 13.428 111.705 13.965 112.748 15.039C113.791 16.1054 114.313 17.5706 114.313 19.4347V31.333H108.686V20.7235C108.686 19.8413 108.46 19.1701 108.007 18.7098C107.555 18.2418 106.968 18.0078 106.247 18.0078C105.472 18.0078 104.862 18.261 104.417 18.7673C103.98 19.266 103.761 19.9372 103.761 20.781V31.333H98.3528V20.666C98.3528 19.8451 98.1304 19.1969 97.6854 18.7213C97.2405 18.2457 96.6536 18.0078 95.9248 18.0078C95.4339 18.0078 95.0004 18.1268 94.6246 18.3646C94.2487 18.5947 93.9533 18.9246 93.7385 19.3542C93.5314 19.7838 93.4278 20.2901 93.4278 20.8731V31.333H87.8009ZM117.8 31.333V13.6582H123.427V31.333H117.8ZM120.619 11.5984C119.829 11.5984 119.15 11.3376 118.582 10.8159C118.015 10.2866 117.731 9.6499 117.731 8.90578C117.731 8.16932 118.015 7.54027 118.582 7.01862C119.15 6.4893 119.829 6.22463 120.619 6.22463C121.417 6.22463 122.096 6.4893 122.656 7.01862C123.223 7.54027 123.507 8.16932 123.507 8.90578C123.507 9.6499 123.223 10.2866 122.656 10.8159C122.096 11.3376 121.417 11.5984 120.619 11.5984ZM135.27 31.6667C133.422 31.6667 131.826 31.3023 130.483 30.5735C129.149 29.8371 128.121 28.79 127.399 27.4321C126.686 26.0666 126.329 24.4441 126.329 22.5646C126.329 20.7389 126.69 19.1432 127.411 17.7777C128.132 16.4045 129.149 15.3382 130.46 14.5787C131.772 13.8116 133.318 13.428 135.098 13.428C136.356 13.428 137.507 13.6237 138.55 14.0149C139.593 14.4061 140.495 14.9853 141.254 15.7525C142.013 16.5196 142.604 17.467 143.026 18.5947C143.448 19.7147 143.659 20.9997 143.659 22.4496V23.8534H128.297V20.5854H138.423C138.416 19.9871 138.274 19.4539 137.997 18.9859C137.721 18.518 137.342 18.1536 136.858 17.8928C136.383 17.6243 135.834 17.49 135.213 17.49C134.584 17.49 134.02 17.632 133.521 17.9158C133.023 18.192 132.628 18.5717 132.336 19.055C132.044 19.5306 131.891 20.0714 131.876 20.6775V24.003C131.876 24.7241 132.018 25.357 132.301 25.9017C132.585 26.4387 132.988 26.8568 133.51 27.156C134.031 27.4551 134.653 27.6047 135.374 27.6047C135.873 27.6047 136.325 27.5357 136.732 27.3976C137.138 27.2595 137.487 27.0562 137.779 26.7877C138.07 26.5192 138.289 26.1894 138.435 25.7981L143.601 25.9477C143.387 27.1061 142.915 28.1149 142.186 28.9741C141.465 29.8256 140.518 30.4892 139.344 30.9648C138.17 31.4327 136.812 31.6667 135.27 31.6667Z" fill="#474747"/>
</g>
<defs>
<filter id="filter0_dd_6_1229" x="0.327271" y="0.333008" width="148.687" height="47" filterUnits="userSpaceOnUse" color-interpolation-filters="sRGB">
<feFlood flood-opacity="0" result="BackgroundImageFix"/>
<feColorMatrix in="SourceAlpha" type="matrix" values="0 0 0 0 0 0 0 0 0 0 0 0 0 0 0 0 0 0 127 0" result="hardAlpha"/>
<feOffset dy="4"/>
<feGaussianBlur stdDeviation="2"/>
<feComposite in2="hardAlpha" operator="out"/>
<feColorMatrix type="matrix" values="0 0 0 0 0 0 0 0 0 0 0 0 0 0 0 0 0 0 0.25 0"/>
<feBlend mode="normal" in2="BackgroundImageFix" result="effect1_dropShadow_6_1229"/>
<feColorMatrix in="SourceAlpha" type="matrix" values="0 0 0 0 0 0 0 0 0 0 0 0 0 0 0 0 0 0 127 0" result="hardAlpha"/>
<feOffset dy="4"/>
<feGaussianBlur stdDeviation="2"/>
<feComposite in2="hardAlpha" operator="out"/>
<feColorMatrix type="matrix" values="0 0 0 0 0 0 0 0 0 0 0 0 0 0 0 0 0 0 0.25 0"/>
<feBlend mode="normal" in2="effect1_dropShadow_6_1229" result="effect2_dropShadow_6_1229"/>
<feBlend mode="normal" in="SourceGraphic" in2="effect2_dropShadow_6_1229" result="shape"/>
</filter>
<clipPath id="clip0_6_1229">
<rect width="32" height="32" fill="white" transform="translate(4.32727 3.83301)"/>
</clipPath>
</defs>
</svg>
